<svg width="150" height="150" viewBox="0 0 150 150" fill="none" xmlns="http://www.w3.org/2000/svg">
<rect width="150" height="150" rx="75" fill="#CFD8DC"/>
<path fill-rule="evenodd" clip-rule="evenodd" d="M91.6674 47.9167C91.6674 55.9708 85.1381 62.5001 77.084 62.5001C69.0299 62.5001 62.5008 55.9708 62.5008 47.9167C62.5008 39.8626 69.0299 33.3335 77.084 33.3335C85.1381 33.3335 91.6674 39.8626 91.6674 47.9167ZM58.334 60.4167C58.334 66.1696 53.6703 70.8335 47.9174 70.8335C42.1645 70.8335 37.5008 66.1696 37.5008 60.4167C37.5008 54.6638 42.1643 50.0001 47.9174 50.0001C53.6705 50.0001 58.334 54.6638 58.334 60.4167ZM33.334 87.5001C33.334 80.5966 38.9305 75.0001 45.834 75.0001H50.0008C50.5043 75.0001 51.0012 75.0298 51.4893 75.0878C50.5297 77.4858 50.0002 80.1147 50.0002 82.8714V104.167H33.3342L33.334 87.5001ZM90.0232 75.0001H101.597V79.4605C103.608 80.1726 105.471 81.2497 107.091 82.6376L110.959 80.4046L116.746 90.428L112.88 92.6599C113.073 93.7066 113.17 94.7687 113.17 95.8331C113.17 96.8975 113.073 97.9596 112.88 99.0063L116.746 101.238L110.959 111.262L107.091 109.029C105.471 110.416 103.608 111.493 101.597 112.206V116.667H90.0232V112.207C88.0113 111.495 86.148 110.418 84.527 109.03L80.6615 111.261L74.8746 101.238L78.7369 99.0079C78.5438 97.9607 78.4468 96.898 78.4473 95.8331C78.4473 94.7487 78.5467 93.6876 78.7369 92.6583L74.8746 90.4284L80.6617 80.405L84.5268 82.6366C86.1478 81.2483 88.0112 80.171 90.0232 79.4591V75.0001ZM102.753 95.8335C102.753 99.6688 99.6437 102.778 95.8084 102.778C91.973 102.778 88.8639 99.6688 88.8639 95.8335C88.8639 91.9981 91.973 88.8892 95.8084 88.8892C99.6437 88.8892 102.753 91.9981 102.753 95.8335ZM54.1668 83.3333C54.1668 74.1286 61.6287 66.6667 70.8336 66.6667H83.3336C87.5822 66.6667 91.4596 68.2565 94.4033 70.8737C81.2619 71.6151 70.834 82.5065 70.834 95.8333C70.834 98.7554 71.3354 101.56 72.2566 104.167H54.1668V83.3333Z" fill="#0277BD"/>
</svg>
