<svg width="22" height="22" viewBox="0 0 22 22" fill="none" xmlns="http://www.w3.org/2000/svg">
<path d="M11.5 4.75C11.5 4.55109 11.421 4.36032 11.2803 4.21967C11.1397 4.07902 10.9489 4 10.75 4C10.5511 4 10.3603 4.07902 10.2197 4.21967C10.079 4.36032 10 4.55109 10 4.75V11.75C10 12.164 10.336 12.5 10.75 12.5H16.25C16.4489 12.5 16.6397 12.421 16.7803 12.2803C16.921 12.1397 17 11.9489 17 11.75C17 11.5511 16.921 11.3603 16.7803 11.2197C16.6397 11.079 16.4489 11 16.25 11H11.5V4.75ZM3.25 0C2.38805 0 1.5614 0.34241 0.951903 0.951903C0.34241 1.5614 0 2.38805 0 3.25V18.75C0 19.612 0.34241 20.4386 0.951903 21.0481C1.5614 21.6576 2.38805 22 3.25 22H18.75C19.612 22 20.4386 21.6576 21.0481 21.0481C21.6576 20.4386 22 19.612 22 18.75V3.25C22 2.38805 21.6576 1.5614 21.0481 0.951903C20.4386 0.34241 19.612 0 18.75 0H3.25ZM1.5 3.25C1.5 2.284 2.284 1.5 3.25 1.5H18.75C19.716 1.5 20.5 2.284 20.5 3.25V18.75C20.5 19.2141 20.3156 19.6592 19.9874 19.9874C19.6592 20.3156 19.2141 20.5 18.75 20.5H3.25C2.78587 20.5 2.34075 20.3156 2.01256 19.9874C1.68437 19.6592 1.5 19.2141 1.5 18.75V3.25Z" fill="white"/>
</svg>
