<svg width="47" height="47" viewBox="0 0 47 47" fill="none" xmlns="http://www.w3.org/2000/svg">
<path d="M39.1663 34.2708C39.9207 34.2712 40.646 34.5618 41.192 35.0824C41.738 35.603 42.0627 36.3137 42.099 37.0672C42.1353 37.8207 41.8802 38.5593 41.3868 39.1299C40.8933 39.7005 40.1992 40.0593 39.4483 40.1321L39.1663 40.1458H7.83301C7.07863 40.1455 6.3533 39.8549 5.80733 39.3343C5.26137 38.8137 4.93661 38.103 4.90036 37.3495C4.8641 36.596 5.11913 35.8574 5.6126 35.2868C6.10607 34.7162 6.80015 34.3573 7.55101 34.2845L7.83301 34.2708H39.1663ZM39.1663 20.5625C39.9454 20.5625 40.6926 20.872 41.2435 21.4229C41.7944 21.9738 42.1038 22.7209 42.1038 23.5C42.1038 24.2791 41.7944 25.0262 41.2435 25.5771C40.6926 26.128 39.9454 26.4375 39.1663 26.4375H7.83301C7.05393 26.4375 6.30677 26.128 5.75588 25.5771C5.20499 25.0262 4.89551 24.2791 4.89551 23.5C4.89551 22.7209 5.20499 21.9738 5.75588 21.4229C6.30677 20.872 7.05393 20.5625 7.83301 20.5625H39.1663ZM39.1663 6.85417C39.9454 6.85417 40.6926 7.16366 41.2435 7.71455C41.7944 8.26543 42.1038 9.0126 42.1038 9.79167C42.1038 10.5707 41.7944 11.3179 41.2435 11.8688C40.6926 12.4197 39.9454 12.7292 39.1663 12.7292H7.83301C7.05393 12.7292 6.30677 12.4197 5.75588 11.8688C5.20499 11.3179 4.89551 10.5707 4.89551 9.79167C4.89551 9.0126 5.20499 8.26543 5.75588 7.71455C6.30677 7.16366 7.05393 6.85417 7.83301 6.85417H39.1663Z" fill="#0277BD"/>
</svg>
