<svg width="20" height="20" viewBox="0 0 20 20" fill="none" xmlns="http://www.w3.org/2000/svg">
<mask id="mask0_532_155" style="mask-type:alpha" maskUnits="userSpaceOnUse" x="0" y="0" width="20" height="20">
<path fill-rule="evenodd" clip-rule="evenodd" d="M2.5 16.8749V8.74991H3.75V16.8749C3.75 17.2201 4.02982 17.4999 4.375 17.4999H15.625C15.9702 17.4999 16.25 17.2201 16.25 16.8749V8.74991H17.5V16.8749C17.5 17.9104 16.6605 18.7499 15.625 18.7499H4.375C3.33947 18.7499 2.5 17.9104 2.5 16.8749Z" fill="black"/>
<path fill-rule="evenodd" clip-rule="evenodd" d="M16.25 3.12491V7.49991L13.75 4.99991V3.12491C13.75 2.77973 14.0298 2.49991 14.375 2.49991H15.625C15.9702 2.49991 16.25 2.77973 16.25 3.12491Z" fill="black"/>
<path fill-rule="evenodd" clip-rule="evenodd" d="M9.11612 1.87491C9.60427 1.38675 10.3957 1.38675 10.8839 1.87491L19.1919 10.183C19.436 10.427 19.436 10.8228 19.1919 11.0668C18.9479 11.3109 18.5521 11.3109 18.3081 11.0668L10 2.75879L1.69194 11.0668C1.44786 11.3109 1.05214 11.3109 0.808058 11.0668C0.563981 10.8228 0.563981 10.427 0.808058 10.183L9.11612 1.87491Z" fill="black"/>
</mask>
<g mask="url(#mask0_532_155)">
<rect width="20" height="20" fill="#EDF2F7"/>
</g>
</svg>
