<svg width="70" height="60" viewBox="0 0 70 60" fill="none" xmlns="http://www.w3.org/2000/svg">
<g filter="url(#filter0_d_204_11648)">
<path d="M60.9747 30.667L60.976 27.4597L60.9766 27.1804C60.8593 25.0644 60.5548 22.963 60.0666 20.9007C59.3696 19.115 57.087 18.3019 55.206 17.9343C54.9448 17.6478 54.6255 17.4204 54.2693 17.2673C53.9132 17.1143 53.5284 17.0391 53.1408 17.0467L48.0986 17.0348C47.4677 17.0257 46.8521 17.2291 46.3508 17.6123L45.6132 17.6103L43.3714 17.6041L42.5202 15.5113L41.7571 15.509L42.0616 17.6032L28.6639 17.5717C28.1636 17.1852 27.5481 16.9778 26.916 16.9825L14.595 16.9555C13.8962 16.9431 13.2185 17.1947 12.6972 17.6601C11.2047 17.8784 8.93061 18.4547 8.7721 19.9721L8.77711 29.1183L8.78229 38.2679C8.93533 39.7825 11.218 40.3708 12.7083 40.5954C13.229 41.0641 13.9071 41.3196 14.6076 41.3112L26.9289 41.3433C27.5598 41.3526 28.1755 41.1492 28.6767 40.7658L42.1613 40.7979L41.8891 42.7114L42.6523 42.7137L43.4235 40.7995L45.6226 40.8046L46.3728 40.8196C46.8715 41.1971 47.481 41.3991 48.1064 41.3942L53.1486 41.4062C53.7841 41.4118 54.4028 41.2021 54.904 40.8112C56.8333 40.4796 59.3263 39.6925 60.0568 37.8145C60.5426 35.7538 60.8446 33.654 60.9593 31.5399L60.9594 30.6678L60.9747 30.667Z" fill="white"/>
</g>
<path d="M13.2406 24.8623C13.2173 23.2445 12.4391 21.9439 11.5025 21.9574C10.5659 21.9709 9.82552 23.2933 9.84881 24.9112L9.97533 33.6993C9.99862 35.3171 10.7768 36.6177 11.7134 36.6042C12.65 36.5907 13.3904 35.2683 13.3671 33.6504L13.2406 24.8623Z" fill="#333333"/>
<path d="M13.1896 21.3362C13.1761 20.3996 12.4059 19.6513 11.4693 19.6648C10.5327 19.6782 9.78437 20.4485 9.79785 21.3851L9.84668 24.7768C9.86017 25.7134 10.6304 26.4618 11.567 26.4483C12.5036 26.4348 13.2519 25.6646 13.2385 24.728L13.1896 21.3362Z" fill="#333333"/>
<path d="M60.7589 26.5882C60.7521 26.1199 60.367 25.7457 59.8987 25.7525C59.4304 25.7592 59.0562 26.1443 59.063 26.6126L59.1607 33.3962C59.1674 33.8645 59.5525 34.2386 60.0208 34.2319C60.4891 34.2252 60.8633 33.8401 60.8565 33.3717L60.7589 26.5882Z" fill="#333333"/>
<path d="M13.3595 33.2074C13.3461 32.2708 12.5759 31.5225 11.6392 31.5359C10.7026 31.5494 9.95429 32.3196 9.96777 33.2562L10.0166 36.648C10.0301 37.5846 10.8003 38.333 11.7369 38.3195C12.6735 38.306 13.4219 37.5358 13.4084 36.5992L13.3595 33.2074Z" fill="#333333"/>
<path d="M47.773 30.2626L47.7595 30.2628C47.7094 32.6293 47.2405 34.9682 46.3747 37.1712C46.1975 37.6923 45.9126 38.1702 45.5385 38.5739C45.1644 38.9776 44.7094 39.2981 44.2033 39.5144L44.1762 39.5148C44.0632 39.5508 43.9472 39.5769 43.8296 39.5927C43.5798 39.6337 43.324 39.6183 43.0809 39.5475L35.4577 36.4616C36.5348 35.7574 37.0458 30.9514 37.2045 29.1324C37.1782 27.3093 37.0358 22.4805 36.0151 21.6861L43.8434 19.2275C44.0915 19.1769 44.3478 19.1825 44.5934 19.2438C44.7097 19.2688 44.8236 19.3035 44.9341 19.3475L44.9613 19.3522C45.4499 19.6098 45.8794 19.9667 46.2221 20.3999C46.5648 20.8331 46.8133 21.3331 46.9516 21.8679C47.6467 24.1321 47.9369 26.5011 47.8089 28.8661L47.8225 28.8659C47.814 29.1018 47.8054 29.3326 47.7951 29.5601C47.7848 29.7875 47.7797 30.0183 47.7695 30.2542L47.773 30.2626Z" fill="#333333"/>
<path d="M24.5534 21.768L24.1936 31.2976L23.9831 37.0593L23.9697 37.4208C22.4312 39.3088 18.8922 39.2631 16.5542 38.9863L17.2842 19.4725C19.6358 19.3928 23.1674 19.632 24.5584 21.6407L24.5534 21.768Z" fill="#333333"/>
<path d="M23.6379 17.7933L40.2745 17.5538C40.2745 17.5538 33.1481 21.0489 31.2012 21.0769C29.2543 21.1049 21.6826 17.8215 23.6379 17.7933Z" fill="#333333"/>
<path d="M23.9887 41.5356L40.6253 41.2961C40.6253 41.2961 33.157 38.0111 31.2101 38.0391C29.2632 38.0672 22.0333 41.5637 23.9887 41.5356Z" fill="#333333"/>
<defs>
<filter id="filter0_d_204_11648" x="4.7601" y="13.5033" width="60.2278" height="35.2275" filterUnits="userSpaceOnUse" color-interpolation-filters="sRGB">
<feFlood flood-opacity="0" result="BackgroundImageFix"/>
<feColorMatrix in="SourceAlpha" type="matrix" values="0 0 0 0 0 0 0 0 0 0 0 0 0 0 0 0 0 0 127 0" result="hardAlpha"/>
<feOffset dy="2.00569"/>
<feGaussianBlur stdDeviation="2.00569"/>
<feColorMatrix type="matrix" values="0 0 0 0 0 0 0 0 0 0 0 0 0 0 0 0 0 0 0.2 0"/>
<feBlend mode="normal" in2="BackgroundImageFix" result="effect1_dropShadow_204_11648"/>
<feBlend mode="normal" in="SourceGraphic" in2="effect1_dropShadow_204_11648" result="shape"/>
</filter>
</defs>
</svg>
