<svg width="50" height="50" viewBox="0 0 50 50" fill="none" xmlns="http://www.w3.org/2000/svg">
<rect width="50" height="50" rx="25" fill="#4CA68F"/>
<path d="M22.8819 38.1052C23.7236 38.7805 24.6014 39.3977 25.5 40C26.4005 39.4057 27.2741 38.7735 28.1181 38.1052C29.525 36.9819 30.8491 35.7639 32.0806 34.4602C34.9194 31.4419 38 27.0663 38 22.1545C38 20.5583 37.6767 18.9778 37.0485 17.5032C36.4203 16.0285 35.4996 14.6886 34.3388 13.56C33.1781 12.4313 31.8001 11.536 30.2835 10.9252C28.767 10.3144 27.1415 10 25.5 10C23.8585 10 22.233 10.3144 20.7165 10.9252C19.1999 11.536 17.8219 12.4313 16.6612 13.56C15.5004 14.6886 14.5797 16.0285 13.9515 17.5032C13.3233 18.9778 13 20.5583 13 22.1545C13 27.0663 16.0806 31.4405 18.9194 34.4602C20.1509 35.7644 21.475 36.9815 22.8819 38.1052ZM25.5 26.5436C24.3028 26.5436 23.1547 26.0812 22.3082 25.2581C21.4617 24.435 20.9861 23.3186 20.9861 22.1545C20.9861 20.9904 21.4617 19.874 22.3082 19.0509C23.1547 18.2278 24.3028 17.7654 25.5 17.7654C26.6972 17.7654 27.8453 18.2278 28.6918 19.0509C29.5383 19.874 30.0139 20.9904 30.0139 22.1545C30.0139 23.3186 29.5383 24.435 28.6918 25.2581C27.8453 26.0812 26.6972 26.5436 25.5 26.5436Z" fill="white"/>
</svg>
