<svg width="20" height="18" viewBox="0 0 20 18" fill="none" xmlns="http://www.w3.org/2000/svg">
<mask id="mask0_532_307" style="mask-type:alpha" maskUnits="userSpaceOnUse" x="0" y="0" width="20" height="18">
<path fill-rule="evenodd" clip-rule="evenodd" d="M12.5 14.0625C12.5 14.3732 12.2202 14.625 11.875 14.625L1.875 14.625C1.52982 14.625 1.25 14.3732 1.25 14.0625L1.25 3.9375C1.25 3.62684 1.52982 3.375 1.875 3.375L11.875 3.375C12.2202 3.375 12.5 3.62684 12.5 3.9375L12.5 6.1875C12.5 6.49816 12.7798 6.75 13.125 6.75C13.4702 6.75 13.75 6.49816 13.75 6.1875L13.75 3.9375C13.75 3.00552 12.9105 2.25 11.875 2.25L1.875 2.25C0.839468 2.25 6.18977e-07 3.00552 5.73712e-07 3.9375L8.19588e-08 14.0625C3.66942e-08 14.9945 0.839466 15.75 1.875 15.75L11.875 15.75C12.9105 15.75 13.75 14.9945 13.75 14.0625L13.75 11.8125C13.75 11.5018 13.4702 11.25 13.125 11.25C12.7798 11.25 12.5 11.5018 12.5 11.8125L12.5 14.0625Z" fill="black"/>
<path fill-rule="evenodd" clip-rule="evenodd" d="M19.8169 9.39775C20.061 9.17808 20.061 8.82192 19.8169 8.60225L16.0669 5.22725C15.8229 5.00758 15.4271 5.00758 15.1831 5.22725C14.939 5.44692 14.939 5.80308 15.1831 6.02275L17.8661 8.4375L6.875 8.4375C6.52982 8.4375 6.25 8.68934 6.25 9C6.25 9.31066 6.52982 9.5625 6.875 9.5625L17.8661 9.5625L15.1831 11.9773C14.939 12.1969 14.939 12.5531 15.1831 12.7727C15.4271 12.9924 15.8229 12.9924 16.0669 12.7727L19.8169 9.39775Z" fill="black"/>
</mask>
<g mask="url(#mask0_532_307)">
<rect width="20" height="18" transform="matrix(-1 0 0 1 20 0)" fill="#EDF2F7"/>
</g>
</svg>
