<svg width="25" height="25" viewBox="0 0 25 25" fill="none" xmlns="http://www.w3.org/2000/svg">
<path d="M24.2034 11.4062H22.3909V21.3281H2.60967V5.125H12.5003V3.125H2.60967C2.35721 3.13292 2.1089 3.19134 1.8794 3.29682C1.6499 3.4023 1.44386 3.5527 1.27345 3.73913C1.10304 3.92556 0.971718 4.14425 0.88723 4.38228C0.802742 4.62031 0.766805 4.87285 0.781541 5.125V21.3281C0.773196 21.5764 0.813877 21.824 0.901257 22.0565C0.988637 22.2891 1.121 22.5022 1.29079 22.6836C1.46057 22.865 1.66444 23.0111 1.89074 23.1137C2.11705 23.2162 2.36134 23.2732 2.60967 23.2812H22.3909C22.6392 23.2732 22.8835 23.2162 23.1098 23.1137C23.3361 23.0111 23.54 22.865 23.7098 22.6836C23.8796 22.5022 24.0119 22.2891 24.0993 22.0565C24.1867 21.824 24.2274 21.5764 24.219 21.3281L24.2034 11.4062Z" fill="#455A64"/>
<path d="M16.5001 4.48438L9.71883 11.2812L9.03133 11.9688L8.90633 12.0938L6.53133 17.0312C6.37199 17.3482 6.31661 17.7074 6.37307 18.0577C6.42952 18.4079 6.59495 18.7315 6.84582 18.9824C7.0967 19.2333 7.42026 19.3987 7.77053 19.4551C8.12081 19.5116 8.47996 19.4562 8.79696 19.2969L13.7032 16.9062L14.5313 16.0781L15.2032 15.4062L21.9845 8.59375L22.6876 7.90625L23.0782 7.51563C23.7156 6.87702 24.0735 6.01163 24.0735 5.10938C24.0735 4.20712 23.7156 3.34173 23.0782 2.70313C22.4426 2.07215 21.5832 1.71826 20.6876 1.71875C19.7876 1.71922 18.9236 2.07265 18.2813 2.70313L17.1876 3.78125L16.4845 4.46875L16.5001 4.48438ZM8.60946 17.1875L10.4532 13.3906L12.4063 15.3594L8.60946 17.1875ZM11.7345 11.9375L17.8282 5.82813L19.8595 7.875L13.8282 14.0625L11.7345 11.9375ZM20.6095 3.64063C20.7984 3.6391 20.9857 3.67568 21.1602 3.74816C21.3347 3.82065 21.4928 3.92755 21.6251 4.0625C21.8951 4.33468 22.0466 4.70254 22.0466 5.08594C22.0466 5.46934 21.8951 5.8372 21.6251 6.10938L21.2345 6.48438L19.2032 4.45313L19.5938 4.0625C19.7348 3.92364 19.9042 3.81685 20.0902 3.74943C20.2763 3.68202 20.4747 3.65556 20.672 3.67188L20.6095 3.64063Z" fill="#455A64"/>
</svg>
