<svg width="50" height="50" viewBox="0 0 50 50" fill="none" xmlns="http://www.w3.org/2000/svg">
<rect width="50" height="50" rx="25" fill="#4CA68F"/>
<path d="M18.0278 23.8194C20.0278 27.75 23.25 30.9583 27.1806 32.9722L30.2361 29.9167C30.6111 29.5417 31.1667 29.4167 31.6528 29.5833C33.2083 30.0972 34.8889 30.375 36.6111 30.375C37.375 30.375 38 31 38 31.7639V36.6111C38 37.375 37.375 38 36.6111 38C23.5694 38 13 27.4306 13 14.3889C13 13.625 13.625 13 14.3889 13H19.25C20.0139 13 20.6389 13.625 20.6389 14.3889C20.6389 16.125 20.9167 17.7917 21.4306 19.3472C21.5833 19.8333 21.4722 20.375 21.0833 20.7639L18.0278 23.8194Z" fill="white"/>
</svg>
