<svg width="69" height="60" viewBox="0 0 69 60" fill="none" xmlns="http://www.w3.org/2000/svg">
<g filter="url(#filter0_d_204_11588)">
<path d="M8.15327 28.4293L8.0938 31.636L8.08813 31.9154C8.16708 34.0331 8.43345 36.1397 8.88413 38.2104C9.54868 40.0085 11.8162 40.8629 13.6902 41.2645C13.9461 41.5557 14.2613 41.7888 14.6146 41.9483C14.9679 42.1078 15.3513 42.19 15.7389 42.1894L20.7801 42.2927C21.4107 42.3132 22.0299 42.121 22.538 41.747L23.2755 41.7624L25.5168 41.8092L26.3299 43.917L27.0929 43.9332L26.8264 41.8338L40.2214 42.1082C40.7146 42.5037 41.3262 42.7222 41.9583 42.729L54.2768 42.9793C54.9752 43.0044 55.6573 42.7651 56.187 42.3092C57.6832 42.118 59.9674 41.583 60.1534 40.0687L60.3142 30.924L60.4748 21.7758C60.3493 20.2586 58.0776 19.6291 56.5917 19.3774C56.0795 18.8994 55.4062 18.6317 54.7056 18.6273L42.3869 18.3719C41.7563 18.3512 41.137 18.5434 40.629 18.9177L27.1472 18.6411L27.454 16.7329L26.691 16.7167L25.8853 18.6166L23.6865 18.5717L22.9367 18.5431C22.445 18.1566 21.8393 17.9436 21.2139 17.9372L16.1727 17.8338C15.5374 17.8166 14.915 18.0151 14.4069 18.3968C12.4718 18.6934 9.965 19.4352 9.20055 21.2996C8.67746 23.3512 8.33742 25.4452 8.18442 27.5569L8.16857 28.4288L8.15327 28.4293Z" fill="white"/>
</g>
<path d="M55.7731 35.0983C55.7671 36.7163 56.5215 38.0308 57.4582 38.0343C58.395 38.0378 59.1592 36.729 59.1652 35.111L59.198 26.322C59.2041 24.704 58.4496 23.3896 57.5129 23.3861C56.5762 23.3826 55.812 24.6914 55.8059 26.3094L55.7731 35.0983Z" fill="#333333"/>
<path d="M55.7607 38.6247C55.7572 39.5614 56.5137 40.3236 57.4504 40.3271C58.3871 40.3306 59.1493 39.5741 59.1528 38.6374L59.1655 35.2453C59.169 34.3086 58.4125 33.5464 57.4758 33.5429C56.5391 33.5394 55.7769 34.2959 55.7734 35.2326L55.7607 38.6247Z" fill="#333333"/>
<path d="M8.29344 32.5113C8.2917 32.9797 8.66995 33.3608 9.1383 33.3625C9.60665 33.3643 9.98775 32.986 9.98949 32.5177L10.0148 25.7335C10.0166 25.2651 9.6383 24.884 9.16995 24.8823C8.7016 24.8805 8.32051 25.2588 8.31876 25.7271L8.29344 32.5113Z" fill="#333333"/>
<path d="M55.8056 26.7524C55.8021 27.6891 56.5587 28.4513 57.4954 28.4548C58.4321 28.4583 59.1942 27.7018 59.1977 26.7651L59.2104 23.373C59.2139 22.4363 58.4574 21.6741 57.5207 21.6706C56.584 21.6671 55.8218 22.4236 55.8183 23.3603L55.8056 26.7524Z" fill="#333333"/>
<path d="M21.3434 29.0729L21.3569 29.073C21.4499 26.7078 21.9611 24.3777 22.8667 22.1908C23.0533 21.673 23.3469 21.2003 23.7282 20.8035C24.1096 20.4066 24.5702 20.0945 25.0802 19.8874L25.1073 19.8875C25.221 19.8535 25.3374 19.8295 25.4553 19.8158C25.7058 19.7794 25.9613 19.7994 26.203 19.8746L33.7691 23.0982C32.6793 23.7828 32.0814 28.5787 31.8897 30.3945C31.8829 32.2177 31.9378 37.0484 32.9439 37.8612L25.0723 40.1774C24.8233 40.2235 24.5672 40.2133 24.3227 40.1475C24.2069 40.1204 24.0936 40.0837 23.9839 40.0377L23.9568 40.0325C23.473 39.766 23.0501 39.4015 22.7153 38.9621C22.3805 38.5228 22.1411 38.0183 22.0125 37.4811C21.3585 35.2047 21.1113 32.8308 21.2822 30.4685L21.2686 30.4685C21.2814 30.2328 21.2941 30.0022 21.3085 29.7749C21.3229 29.5477 21.3323 29.3171 21.3467 29.0814L21.3434 29.0729Z" fill="#333333"/>
<path d="M44.4054 37.987L44.9378 28.4656L45.2528 22.7086L45.2728 22.3474C46.8452 20.4876 50.3828 20.5975 52.7154 20.9166L51.6317 40.414C49.2792 40.451 45.7525 40.1478 44.3981 38.1142L44.4054 37.987Z" fill="#333333"/>
<path d="M45.2488 41.9777L28.6105 41.9156C28.6105 41.9156 35.7992 38.5502 37.7462 38.5575C39.6933 38.5648 47.2043 41.9849 45.2488 41.9777Z" fill="#333333"/>
<path d="M45.3287 18.2329L28.6904 18.1708C28.6904 18.1708 36.098 21.5906 38.045 21.5979C39.9921 21.6052 47.2842 18.2402 45.3287 18.2329Z" fill="#333333"/>
<defs>
<filter id="filter0_d_204_11588" x="4.07651" y="14.711" width="60.4095" height="35.2393" filterUnits="userSpaceOnUse" color-interpolation-filters="sRGB">
<feFlood flood-opacity="0" result="BackgroundImageFix"/>
<feColorMatrix in="SourceAlpha" type="matrix" values="0 0 0 0 0 0 0 0 0 0 0 0 0 0 0 0 0 0 127 0" result="hardAlpha"/>
<feOffset dy="2.00569"/>
<feGaussianBlur stdDeviation="2.00569"/>
<feColorMatrix type="matrix" values="0 0 0 0 0 0 0 0 0 0 0 0 0 0 0 0 0 0 0.2 0"/>
<feBlend mode="normal" in2="BackgroundImageFix" result="effect1_dropShadow_204_11588"/>
<feBlend mode="normal" in="SourceGraphic" in2="effect1_dropShadow_204_11588" result="shape"/>
</filter>
</defs>
</svg>
