<svg width="150" height="150" viewBox="0 0 150 150" fill="none" xmlns="http://www.w3.org/2000/svg">
<rect width="150" height="150" rx="75" fill="#CFD8DC"/>
<g clip-path="url(#clip0_179_576)">
<path d="M75.3879 30C76.8617 30 78.3129 30.0956 79.6629 30.3206C80.993 30.492 82.3051 30.7819 83.5835 31.1869C84.8585 31.5694 86.1223 32.0625 87.3748 32.6662C88.5954 33.2456 89.8498 33.9544 91.1042 34.725C93.2248 36.075 95.3117 37.1662 97.4379 38.0381C101.623 39.7169 106.049 40.7139 110.55 40.9912C112.826 41.16 115.183 41.2462 117.62 41.25V63.75C117.62 68.0212 117.075 72.0825 115.984 75.9337C114.935 79.7374 113.446 83.4054 111.545 86.8631C109.653 90.3162 107.414 93.5673 104.863 96.5662C102.274 99.6348 99.4694 102.515 96.4704 105.184C93.4292 107.857 90.2303 110.346 86.891 112.637C83.546 114.962 80.1823 117.105 76.7998 119.066L75.4498 119.871L74.0998 119.066C70.63 117.058 67.2411 114.913 63.941 112.637C60.5838 110.371 57.3834 107.881 54.3617 105.184C51.3646 102.514 48.5619 99.6346 45.9748 96.5662C43.432 93.5532 41.183 90.3041 39.2585 86.8631C37.3925 83.3892 35.9046 79.7251 34.8204 75.9337C33.7295 71.9652 33.1882 67.8657 33.2117 63.75V41.25C35.6492 41.2462 38.0079 41.16 40.2879 40.9912C42.5364 40.8384 44.7701 40.5169 46.9704 40.0294C49.1248 39.5456 51.2792 38.9044 53.3998 38.0381C55.5998 37.1488 57.7094 36.0507 59.6998 34.7587C62.1748 33.15 64.6835 31.9631 67.1585 31.1812C69.8242 30.365 72.6003 29.9665 75.3879 30ZM111.962 46.7794C107.704 46.571 103.486 45.8591 99.3954 44.6587C95.3282 43.4423 91.4535 41.6565 87.8867 39.3544C86.036 38.1428 84.0279 37.1908 81.9185 36.525C79.8102 35.8891 77.6181 35.5744 75.416 35.5912C73.1976 35.5777 70.9893 35.8924 68.8629 36.525C66.7511 37.1709 64.7458 38.1243 62.9117 39.3544C59.3374 41.6668 55.453 43.4603 51.3748 44.6812C47.3885 45.84 43.2092 46.5487 38.8367 46.8075V63.7781C38.8367 67.5019 39.3204 71.0794 40.2879 74.5106C41.2744 77.9173 42.6326 81.2052 44.3379 84.315C46.0644 87.4568 48.0994 90.419 50.4129 93.1575C52.7585 95.9194 55.2617 98.49 57.9617 100.931C60.6617 103.372 63.491 105.634 66.4498 107.715C69.4385 109.8 72.4273 111.707 75.416 113.436C78.4758 111.657 81.458 109.749 84.3542 107.715C87.336 105.639 90.1807 103.373 92.8704 100.931C95.5704 98.49 98.0792 95.9194 100.425 93.1575C102.738 90.419 104.773 87.4568 106.5 84.315C108.197 81.2086 109.534 77.9194 110.488 74.5106C111.486 71.0212 111.982 67.4074 111.962 63.7781V46.7794Z" fill="#0277BD"/>
<path fill-rule="evenodd" clip-rule="evenodd" d="M96.3579 56.4881L93.8829 54.3618L91.5991 54.5587L67.0741 83.5162L58.721 71.5912L56.471 71.2087L53.8666 73.0706L53.4785 75.3206L64.2166 90.6543L65.4373 91.3293L68.0079 91.4868L69.3241 90.9131L96.521 58.7662L96.3579 56.4881Z" fill="#0277BD"/>
</g>
<defs>
<clipPath id="clip0_179_576">
<rect width="90" height="90" fill="white" transform="translate(30 30)"/>
</clipPath>
</defs>
</svg>
