<svg width="20" height="20" viewBox="0 0 20 20" fill="none" xmlns="http://www.w3.org/2000/svg">
<mask id="mask0_532_281" style="mask-type:alpha" maskUnits="userSpaceOnUse" x="0" y="0" width="20" height="20">
<path fill-rule="evenodd" clip-rule="evenodd" d="M11.0466 2.03262C10.739 0.989126 9.26098 0.989125 8.95341 2.03262L8.8361 2.43064C8.41443 3.86124 6.78041 4.53808 5.47066 3.82465L5.10627 3.62617C4.15092 3.10579 3.10579 4.15092 3.62617 5.10627L3.82465 5.47066C4.53808 6.78041 3.86124 8.41443 2.43064 8.8361L2.03262 8.95341C0.989126 9.26098 0.989125 10.739 2.03262 11.0466L2.43064 11.1639C3.86124 11.5856 4.53808 13.2196 3.82465 14.5293L3.62617 14.8937C3.10579 15.8491 4.15092 16.8942 5.10626 16.3738L5.47066 16.1753C6.78041 15.4619 8.41443 16.1388 8.8361 17.5694L8.95341 17.9674C9.26098 19.0109 10.739 19.0109 11.0466 17.9674L11.1639 17.5694C11.5856 16.1388 13.2196 15.4619 14.5293 16.1753L14.8937 16.3738C15.8491 16.8942 16.8942 15.8491 16.3738 14.8937L16.1753 14.5293C15.4619 13.2196 16.1388 11.5856 17.5694 11.1639L17.9674 11.0466C19.0109 10.739 19.0109 9.26098 17.9674 8.95341L17.5694 8.8361C16.1388 8.41443 15.4619 6.78041 16.1753 5.47066L16.3738 5.10626C16.8942 4.15092 15.8491 3.10579 14.8937 3.62617L14.5293 3.82465C13.2196 4.53808 11.5856 3.86124 11.1639 2.43064L11.0466 2.03262ZM7.75441 1.67922C8.41434 -0.559739 11.5857 -0.559741 12.2456 1.67922L12.3629 2.07724C12.5594 2.74399 13.321 3.05944 13.9314 2.72694L14.2958 2.52845C16.3456 1.41191 18.5881 3.65437 17.4715 5.70419L17.2731 6.06859C16.9406 6.67901 17.256 7.44057 17.9228 7.6371L18.3208 7.75441C20.5597 8.41434 20.5597 11.5857 18.3208 12.2456L17.9228 12.3629C17.256 12.5594 16.9406 13.321 17.2731 13.9314L17.4715 14.2958C18.5881 16.3456 16.3456 18.5881 14.2958 17.4715L13.9314 17.2731C13.321 16.9406 12.5594 17.256 12.3629 17.9228L12.2456 18.3208C11.5857 20.5597 8.41434 20.5597 7.75441 18.3208L7.6371 17.9228C7.44057 17.256 6.67902 16.9406 6.06859 17.2731L5.70419 17.4715C3.65437 18.5881 1.41191 16.3456 2.52845 14.2958L2.72694 13.9314C3.05944 13.321 2.74399 12.5594 2.07724 12.3629L1.67922 12.2456C-0.559739 11.5857 -0.559741 8.41434 1.67922 7.75441L2.07724 7.6371C2.74399 7.44057 3.05944 6.67901 2.72694 6.06859L2.52845 5.7042C1.41191 3.65437 3.65437 1.41191 5.70419 2.52845L6.06859 2.72694C6.67901 3.05944 7.44057 2.74399 7.6371 2.07724L7.75441 1.67922Z" fill="black"/>
<path fill-rule="evenodd" clip-rule="evenodd" d="M10.0006 7.19287C8.45019 7.19287 7.19336 8.4497 7.19336 10.0001C7.19336 11.5504 8.45019 12.8073 10.0006 12.8073C11.5509 12.8073 12.8078 11.5504 12.8078 10.0001C12.8078 8.4497 11.5509 7.19287 10.0006 7.19287ZM5.94336 10.0001C5.94336 7.75934 7.75983 5.94287 10.0006 5.94287C12.2413 5.94287 14.0578 7.75934 14.0578 10.0001C14.0578 12.2408 12.2413 14.0573 10.0006 14.0573C7.75983 14.0573 5.94336 12.2408 5.94336 10.0001Z" fill="black"/>
</mask>
<g mask="url(#mask0_532_281)">
<rect width="20" height="20" fill="#EDF2F7"/>
</g>
</svg>
