<svg width="150" height="150" viewBox="0 0 150 150" fill="none" xmlns="http://www.w3.org/2000/svg">
<rect width="150" height="150" rx="75" fill="#CFD8DC"/>
<path d="M33.3327 116.667C32.1521 116.667 31.1632 116.267 30.366 115.467C29.5688 114.667 29.1688 113.678 29.166 112.5V79.1667L38.0202 58.0209C38.5063 56.8404 39.2702 55.9029 40.3118 55.2084C41.3535 54.514 42.4993 54.1667 43.7493 54.1667H81.2493C82.4993 54.1667 83.6452 54.514 84.6868 55.2084C85.7285 55.9029 86.4924 56.8404 86.9785 58.0209L95.8327 79.1667V112.5C95.8327 113.681 95.4327 114.671 94.6327 115.471C93.8327 116.271 92.8438 116.67 91.666 116.667H87.4993C86.3188 116.667 85.3299 116.267 84.5327 115.467C83.7355 114.667 83.3355 113.678 83.3327 112.5V108.333H41.666V112.5C41.666 113.681 41.266 114.671 40.466 115.471C39.666 116.271 38.6771 116.67 37.4993 116.667H33.3327ZM40.8327 70.8334H84.0618L80.6243 62.5001H44.3743L40.8327 70.8334ZM47.916 95.8334C49.6521 95.8334 51.1285 95.2265 52.3452 94.0126C53.5618 92.7987 54.1688 91.3223 54.166 89.5834C54.1632 87.8445 53.5563 86.3695 52.3452 85.1584C51.1341 83.9473 49.6577 83.339 47.916 83.3334C46.1743 83.3279 44.6993 83.9362 43.491 85.1584C42.2827 86.3806 41.6743 87.8556 41.666 89.5834C41.6577 91.3112 42.266 92.7876 43.491 94.0126C44.716 95.2376 46.191 95.8445 47.916 95.8334ZM77.0827 95.8334C78.8188 95.8334 80.2952 95.2265 81.5118 94.0126C82.7285 92.7987 83.3355 91.3223 83.3327 89.5834C83.3299 87.8445 82.723 86.3695 81.5118 85.1584C80.3007 83.9473 78.8243 83.339 77.0827 83.3334C75.341 83.3279 73.866 83.9362 72.6577 85.1584C71.4493 86.3806 70.841 87.8556 70.8327 89.5834C70.8243 91.3112 71.4327 92.7876 72.6577 94.0126C73.8827 95.2376 75.3577 95.8445 77.0827 95.8334ZM99.9993 104.167V68.3334L92.3952 50.0001H48.6452L50.5202 45.5209C51.0063 44.3404 51.7702 43.4029 52.8118 42.7084C53.8535 42.014 54.9993 41.6667 56.2493 41.6667H93.7493C94.9993 41.6667 96.1452 42.014 97.1869 42.7084C98.2285 43.4029 98.9924 44.3404 99.4785 45.5209L108.333 66.6667V100C108.333 101.181 107.933 102.171 107.133 102.971C106.333 103.771 105.344 104.17 104.166 104.167H99.9993ZM112.499 91.6667V55.8334L104.895 37.5001H61.1452L63.0202 33.0209C63.5063 31.8404 64.2702 30.9029 65.3118 30.2084C66.3535 29.514 67.4993 29.1667 68.7493 29.1667H106.249C107.499 29.1667 108.645 29.514 109.687 30.2084C110.729 30.9029 111.492 31.8404 111.979 33.0209L120.833 54.1667V87.5001C120.833 88.6806 120.433 89.6709 119.633 90.4709C118.833 91.2709 117.844 91.6695 116.666 91.6667H112.499Z" fill="#0277BD"/>
</svg>
