<svg width="23" height="23" viewBox="0 0 23 23" fill="none" xmlns="http://www.w3.org/2000/svg">
<path d="M8.625 2.875C9.33578 2.875 10.0306 3.08577 10.6216 3.48066C11.2126 3.87554 11.6732 4.43681 11.9452 5.09348C12.2172 5.75015 12.2884 6.47274 12.1497 7.16986C12.011 7.86697 11.6688 8.50732 11.1662 9.00991C10.6636 9.51251 10.0232 9.85478 9.32611 9.99345C8.62899 10.1321 7.90641 10.0609 7.24973 9.78894C6.59306 9.51694 6.03179 9.05632 5.63691 8.46533C5.24202 7.87434 5.03125 7.17953 5.03125 6.46875C5.03125 5.51563 5.40988 4.60154 6.08384 3.92759C6.7578 3.25363 7.67188 2.875 8.625 2.875ZM8.625 1.4375C7.62992 1.4375 6.65717 1.73258 5.82979 2.28542C5.00241 2.83826 4.35754 3.62403 3.97673 4.54337C3.59593 5.46271 3.49629 6.47433 3.69043 7.4503C3.88456 8.42626 4.36374 9.32275 5.06737 10.0264C5.771 10.73 6.66749 11.2092 7.64345 11.4033C8.61942 11.5975 9.63104 11.4978 10.5504 11.117C11.4697 10.7362 12.2555 10.0913 12.8083 9.26396C13.3612 8.43658 13.6563 7.46384 13.6563 6.46875C13.6563 5.13438 13.1262 3.85466 12.1826 2.91112C11.2391 1.96758 9.95937 1.4375 8.625 1.4375Z" fill="white"/>
<path d="M15.8125 21.5625H14.375V17.9688C14.375 17.0156 13.9964 16.1015 13.3224 15.4276C12.6485 14.7536 11.7344 14.375 10.7812 14.375H6.46875C5.51563 14.375 4.60154 14.7536 3.92759 15.4276C3.25363 16.1015 2.875 17.0156 2.875 17.9688V21.5625H1.4375V17.9688C1.4375 16.6344 1.96758 15.3547 2.91112 14.4111C3.85466 13.4676 5.13438 12.9375 6.46875 12.9375H10.7812C12.1156 12.9375 13.3953 13.4676 14.3389 14.4111C15.2824 15.3547 15.8125 16.6344 15.8125 17.9688V21.5625Z" fill="white"/>
<path d="M17.9688 11.6294L16.1072 9.76781L15.0938 10.7813L17.9688 13.6563L23 8.625L21.9866 7.61156L17.9688 11.6294Z" fill="white"/>
</svg>
