<svg width="150" height="150" viewBox="0 0 150 150" fill="none" xmlns="http://www.w3.org/2000/svg">
<rect width="150" height="150" rx="75" fill="#CFD8DC"/>
<path d="M75.0007 62.5C70.9729 62.5 67.5354 61.0764 64.6881 58.2292C61.8409 55.382 60.4173 51.9445 60.4173 47.9167C60.4173 43.8889 61.8409 40.4514 64.6881 37.6042C67.5354 34.757 70.9729 33.3334 75.0007 33.3334C79.0284 33.3334 82.4659 34.757 85.3132 37.6042C88.1604 40.4514 89.584 43.8889 89.584 47.9167C89.584 51.9445 88.1604 55.382 85.3132 58.2292C82.4659 61.0764 79.0284 62.5 75.0007 62.5ZM69.0631 110.729L50.0007 91.6667C48.6118 90.2778 47.5701 88.7153 46.8757 86.9792C46.1812 85.2431 45.834 83.3334 45.834 81.25C45.834 77.1528 47.2409 73.6973 50.0548 70.8834C52.8687 68.0695 56.3229 66.6639 60.4173 66.6667C62.4312 66.6667 64.2895 67.0486 65.9923 67.8125C67.6951 68.5764 69.2395 69.6528 70.6256 71.0417L75.0007 75.4167L79.3757 71.0417C80.7645 69.6528 82.3104 68.5764 84.0131 67.8125C85.7159 67.0486 87.5729 66.6667 89.584 66.6667C93.6812 66.6667 97.1368 68.0737 99.9507 70.8875C102.765 73.7014 104.17 77.1556 104.167 81.25C104.167 83.3334 103.82 85.2431 103.126 86.9792C102.431 88.7153 101.39 90.2778 100.001 91.6667L80.9382 110.729C80.1048 111.563 79.1673 112.188 78.1256 112.604C77.084 113.021 76.0423 113.229 75.0007 113.229C73.959 113.229 72.9173 113.021 71.8757 112.604C70.834 112.188 69.8965 111.563 69.0631 110.729Z" fill="#0277BD"/>
</svg>
