<svg width="160" height="182" viewBox="0 0 160 182" fill="none" xmlns="http://www.w3.org/2000/svg">
<g filter="url(#filter0_d_204_11468)">
<path d="M84.5654 21.2265L75.7551 21.1397L74.9878 21.1308C69.1691 21.3877 63.3806 22.1425 57.6901 23.3862C52.7481 25.1924 50.3948 31.2377 49.2865 36.2273C48.4858 36.914 47.8444 37.7567 47.4052 38.6993C46.9661 39.6419 46.7393 40.6625 46.74 41.6927L46.4428 55.0932C46.3848 56.7696 46.9113 58.411 47.9375 59.7532L47.8933 61.7134L47.7587 67.6713L41.9654 69.8791L41.9189 71.9074L47.6878 71.1524L46.8985 106.759C45.8108 108.078 45.2086 109.709 45.1883 111.389L44.4681 144.133C44.3974 145.99 45.0531 147.798 46.3042 149.195C46.8256 153.168 48.2895 159.226 52.4495 159.687L77.5741 159.911L102.708 160.135C106.877 159.768 108.612 153.716 109.308 149.762C110.622 148.39 111.36 146.594 111.373 144.732L112.108 111.987C112.166 110.31 111.64 108.669 110.613 107.327L111.408 71.4898L116.65 72.2629L116.697 70.2346L111.479 68.1353L111.608 62.2908L111.689 60.2973C112.752 58.9818 113.339 57.3673 113.358 55.7051L113.655 42.3046C113.704 40.6158 113.16 38.966 112.113 37.624C111.303 32.4878 109.272 25.8418 104.151 23.8515C98.516 22.5069 92.7638 21.6497 86.9623 21.2899L84.5668 21.2672L84.5654 21.2265Z" fill="white"/>
</g>
<path d="M66.0162 148.251C61.5771 148.251 57.9785 150.238 57.9785 152.69C57.9785 155.141 61.5771 157.128 66.0162 157.128L90.1293 157.128C94.5684 157.128 98.167 155.141 98.167 152.69C98.167 150.238 94.5684 148.251 90.1293 148.251L66.0162 148.251Z" fill="#333333"/>
<path d="M56.3407 148.251C53.7708 148.251 51.6875 150.238 51.6875 152.69C51.6875 155.141 53.7708 157.128 56.3407 157.128L65.6472 157.128C68.2171 157.128 70.3004 155.141 70.3004 152.69C70.3004 150.238 68.2171 148.251 65.6472 148.251L56.3407 148.251Z" fill="#333333"/>
<path d="M72.6313 23.9659C71.3463 23.9659 70.3047 24.9595 70.3047 26.1853C70.3047 27.411 71.3463 28.4046 72.6313 28.4046L91.2442 28.4046C92.5292 28.4046 93.5708 27.411 93.5708 26.1853C93.5708 24.9595 92.5292 23.9659 91.2442 23.9659L72.6313 23.9659Z" fill="#333333"/>
<path d="M88.915 148.251C86.345 148.251 84.2617 150.238 84.2617 152.69C84.2617 155.141 86.345 157.128 88.915 157.128L98.2214 157.128C100.791 157.128 102.875 155.141 102.875 152.69C102.875 150.238 100.791 148.251 98.2214 148.251L88.915 148.251Z" fill="#333333"/>
<path d="M82.196 58.0865L82.196 58.122C88.6859 58.3423 95.0836 59.6572 101.093 62.006C102.515 62.4893 103.815 63.2529 104.908 64.2471C106.001 65.2413 106.862 66.4438 107.435 67.7763L107.435 67.8473C107.529 68.1445 107.596 68.449 107.635 68.7573C107.738 69.4125 107.685 70.0814 107.482 70.7148L98.7149 90.5471C96.8257 87.7019 83.6617 86.1838 78.6781 85.7C73.6759 85.7 60.4235 85.8909 58.2039 88.5319L51.7685 67.9539C51.6394 67.3028 51.6649 66.6324 51.8429 65.9919C51.916 65.6886 52.0156 65.3917 52.1407 65.1042L52.1547 65.0332C52.8808 63.7643 53.8767 62.654 55.0786 61.7735C56.2805 60.8929 57.662 60.2616 59.1345 59.9197C65.3732 58.1861 71.8836 57.516 78.3663 57.9401L78.3663 57.9045C79.0131 57.9356 79.646 57.9667 80.2695 58.0022C80.893 58.0377 81.5259 58.0599 82.1727 58.0954L82.196 58.0865Z" fill="#333333"/>
<path d="M57.979 118.529L84.1069 119.83L99.9046 120.597L100.896 120.646C106.014 124.743 105.749 134.002 104.898 140.11L51.3946 137.465C51.269 131.308 52.0647 122.076 57.63 118.511L57.979 118.529Z" fill="#333333"/>
<path d="M47.0371 120.775L47.0371 77.2309C47.0371 77.2309 56.3436 96.0112 56.3436 101.107C56.3436 106.203 47.0371 125.893 47.0371 120.775Z" fill="#333333"/>
<path d="M112.185 120.753L112.185 77.2087C112.185 77.2087 102.879 96.6282 102.879 101.724C102.879 106.82 112.185 125.871 112.185 120.753Z" fill="#333333"/>
<defs>
<filter id="filter0_d_204_11468" x="37.9066" y="19.1251" width="82.8021" height="147.027" filterUnits="userSpaceOnUse" color-interpolation-filters="sRGB">
<feFlood flood-opacity="0" result="BackgroundImageFix"/>
<feColorMatrix in="SourceAlpha" type="matrix" values="0 0 0 0 0 0 0 0 0 0 0 0 0 0 0 0 0 0 127 0" result="hardAlpha"/>
<feOffset dy="2.00569"/>
<feGaussianBlur stdDeviation="2.00569"/>
<feColorMatrix type="matrix" values="0 0 0 0 0 0 0 0 0 0 0 0 0 0 0 0 0 0 0.2 0"/>
<feBlend mode="normal" in2="BackgroundImageFix" result="effect1_dropShadow_204_11468"/>
<feBlend mode="normal" in="SourceGraphic" in2="effect1_dropShadow_204_11468" result="shape"/>
</filter>
</defs>
</svg>
