<svg width="150" height="150" viewBox="0 0 150 150" fill="none" xmlns="http://www.w3.org/2000/svg">
<rect width="150" height="150" rx="75" fill="#CFD8DC"/>
<path d="M75 45.8333C70.4167 45.8333 66.6667 49.5833 66.6667 54.1666V58.3333H52.0833C49.3333 58.3333 47 60.0833 46.1667 62.4999L37.5 87.4999V120.833C37.5 123.125 39.375 125 41.6667 125H45.8333C48.125 125 50 123.125 50 120.833V116.667H100V120.833C100 123.125 101.875 125 104.167 125H108.333C110.625 125 112.5 123.125 112.5 120.833V87.4999L103.833 62.4999C103 60.0833 100.667 58.3333 97.9167 58.3333H83.3333V54.1666C83.3333 51.9564 82.4554 49.8368 80.8926 48.274C79.3298 46.7112 77.2101 45.8333 75 45.8333ZM52.0833 64.5833H97.9167L104.167 83.3332H45.8333L52.0833 64.5833ZM52.0833 91.6666C55.5417 91.6666 58.3333 94.4583 58.3333 97.9166C58.3333 101.375 55.5417 104.167 52.0833 104.167C48.625 104.167 45.8333 101.375 45.8333 97.9166C45.8333 94.4583 48.625 91.6666 52.0833 91.6666ZM97.9167 91.6666C101.375 91.6666 104.167 94.4583 104.167 97.9166C104.167 101.375 101.375 104.167 97.9167 104.167C94.4583 104.167 91.6667 101.375 91.6667 97.9166C91.6667 94.4583 94.4583 91.6666 97.9167 91.6666ZM92.5 39.1666C87.5 34.5833 81.25 32.0833 75 32.0833C68.75 32.0833 62.5 34.5833 57.5 39.1666L54.1667 35.8333C60 29.9999 67.5 27.0833 75 27.0833C82.5 27.0833 90 29.9999 95.8333 35.8333L92.5 39.1666ZM88.75 42.4999L85.4167 45.8333C82.5 42.9166 78.75 41.6666 75 41.6666C71.25 41.6666 67.5 42.9166 64.5833 45.8333L61.25 42.4999C65 38.7499 70 36.6666 75 36.6666C80 36.6666 85 38.7499 88.75 42.4999Z" fill="#0277BD"/>
</svg>
