<svg width="150" height="150" viewBox="0 0 150 150" fill="none" xmlns="http://www.w3.org/2000/svg">
<rect width="150" height="150" rx="75" fill="#CFD8DC"/>
<path d="M75.0007 33.3334C98.0132 33.3334 116.667 51.9875 116.667 75C116.667 98.0125 98.0132 116.667 75.0007 116.667C51.9882 116.667 33.334 98.0125 33.334 75C33.334 51.9875 51.9882 33.3334 75.0007 33.3334ZM75.0007 50C73.8956 50 72.8358 50.439 72.0544 51.2204C71.273 52.0018 70.834 53.0616 70.834 54.1667V75C70.8342 76.105 71.2734 77.1647 72.0548 77.9459L84.5548 90.4459C85.3407 91.2049 86.3932 91.6248 87.4857 91.6154C88.5781 91.6059 89.6232 91.1677 90.3957 90.3951C91.1683 89.6226 91.6065 88.5775 91.616 87.485C91.6255 86.3926 91.2055 85.3401 90.4465 84.5542L79.1673 73.275V54.1667C79.1673 53.0616 78.7283 52.0018 77.9469 51.2204C77.1655 50.439 76.1057 50 75.0007 50Z" fill="#0277BD"/>
</svg>
